<svg xmlns="http://www.w3.org/2000/svg" viewBox="0 0 128 128">
  <!-- Football -->
  <ellipse cx="58" cy="58" rx="38" ry="24" transform="rotate(-40 58 58)" fill="#FFB612"/>
  <ellipse cx="58" cy="58" rx="36" ry="22" transform="rotate(-40 58 58)" fill="none" stroke="#FFD54F" stroke-width="1.5"/>
  <line x1="40" y1="72" x2="76" y2="44" stroke="#09090B" stroke-width="2.5" stroke-linecap="round"/>
  <line x1="50" y1="55" x2="45" y2="60" stroke="#09090B" stroke-width="2" stroke-linecap="round"/>
  <line x1="56" y1="52" x2="51" y2="57" stroke="#09090B" stroke-width="2" stroke-linecap="round"/>
  <line x1="62" y1="49" x2="57" y2="54" stroke="#09090B" stroke-width="2" stroke-linecap="round"/>
  <line x1="68" y1="46" x2="63" y2="51" stroke="#09090B" stroke-width="2" stroke-linecap="round"/>
  <!-- Shot glass -->
  <path d="M88 70 L82 108 Q82 112 86 112 L104 112 Q108 112 108 108 L102 70 Z" fill="#F59E0B" opacity="0.9"/>
  <path d="M88 70 L102 70" stroke="#FFD54F" stroke-width="2" stroke-linecap="round"/>
  <rect x="86" y="85" width="18" height="12" rx="2" fill="#FFB612" opacity="0.5"/>
  <!-- Plus badge -->
  <circle cx="108" cy="28" r="16" fill="#FFB612"/>
  <line x1="108" y1="20" x2="108" y2="36" stroke="#09090B" stroke-width="3.5" stroke-linecap="round"/>
  <line x1="100" y1="28" x2="116" y2="28" stroke="#09090B" stroke-width="3.5" stroke-linecap="round"/>
</svg>
